<svg width="300" height="300" viewBox="0 0 300 300" fill="none" xmlns="http://www.w3.org/2000/svg">
  <!-- Ankh -->
  <g transform="translate(50,50)">
    <circle cx="20" cy="15" r="12" stroke="#f5e9d6" stroke-width="3" fill="none"/>
    <line x1="20" y1="27" x2="20" y2="55" stroke="#f5e9d6" stroke-width="3"/>
    <line x1="10" y1="40" x2="30" y2="40" stroke="#f5e9d6" stroke-width="3"/>
  </g>
  
  <!-- Eye of Horus -->
  <g transform="translate(150,40)">
    <path d="M0 15 Q10 5 20 10 Q30 5 40 15 Q30 25 20 20 Q10 25 0 15" fill="#e5cdb2" stroke="#f5e9d6" stroke-width="2"/>
    <circle cx="20" cy="15" r="4" fill="#f5e9d6"/>
    <line x1="20" y1="25" x2="25" y2="30" stroke="#f5e9d6" stroke-width="2"/>
  </g>
  
  <!-- Pyramid -->
  <g transform="translate(220,160)">
    <polygon points="25,10 5,50 45,50" fill="#e5cdb2" stroke="#f5e9d6" stroke-width="2"/>
    <line x1="25" y1="10" x2="35" y2="50" stroke="#f5e9d6" stroke-width="1" opacity="0.7"/>
    <line x1="25" y1="10" x2="15" y2="50" stroke="#f5e9d6" stroke-width="1" opacity="0.7"/>
  </g>
  
  <!-- Scarab -->
  <g transform="translate(60,180)">
    <ellipse cx="20" cy="20" rx="18" ry="12" fill="#e5cdb2" stroke="#f5e9d6" stroke-width="2"/>
    <path d="M2 20 Q10 10 20 20 Q30 10 38 20" stroke="#f5e9d6" stroke-width="2" fill="none"/>
    <circle cx="12" cy="16" r="2" fill="#f5e9d6"/>
    <circle cx="28" cy="16" r="2" fill="#f5e9d6"/>
  </g>
  
  <!-- Falcon -->
  <g transform="translate(180,200)">
    <path d="M10 20 Q20 5 30 10 L35 15 Q30 25 20 20 L10 20" fill="#e5cdb2" stroke="#f5e9d6" stroke-width="2"/>
    <line x1="30" y1="10" x2="35" y2="5" stroke="#f5e9d6" stroke-width="2"/>
    <circle cx="25" cy="15" r="2" fill="#f5e9d6"/>
  </g>
  
  <!-- Papyrus -->
  <g transform="translate(20,250)">
    <path d="M5 5 Q15 0 25 5 Q35 0 45 5 L45 35 Q35 40 25 35 Q15 40 5 35 Z" fill="#e5cdb2" stroke="#f5e9d6" stroke-width="2"/>
    <line x1="10" y1="15" x2="40" y2="15" stroke="#f5e9d6" stroke-width="1"/>
    <line x1="10" y1="25" x2="40" y2="25" stroke="#f5e9d6" stroke-width="1"/>
  </g>
</svg>
